<svg xmlns="http://www.w3.org/2000/svg" version="1.1" xmlns:xlink="http://www.w3.org/1999/xlink" xmlns:svgjs="http://svgjs.dev/svgjs" width="1000" height="343" viewBox="0 0 1000 343"><g transform="matrix(1,0,0,1,-0.6060606060606233,-0.43359816953474706)"><svg viewBox="0 0 396 136" data-background-color="#ffffff" preserveAspectRatio="xMidYMid meet" height="343" width="1000" xmlns="http://www.w3.org/2000/svg" xmlns:xlink="http://www.w3.org/1999/xlink"><g id="tight-bounds" transform="matrix(1,0,0,1,0.2400000000000091,0.17192230628782568)"><svg viewBox="0 0 395.52 135.65615538742435" height="135.65615538742435" width="395.52"><g><svg viewBox="0 0 919.3045712666632 315.30472231017393" height="135.65615538742435" width="395.52"><g transform="matrix(1,0,0,1,523.7845712666632,83.68920677543117)"><svg viewBox="0 0 395.52 147.92630875931158" height="147.92630875931158" width="395.52"><g><svg viewBox="0 0 395.52 147.92630875931158" height="147.92630875931158" width="395.52"><g><svg viewBox="0 0 395.52 147.92630875931158" height="147.92630875931158" width="395.52"><g transform="matrix(1,0,0,1,0,0)"><svg width="395.52" viewBox="2.69 -35.55 95.03 35.55" height="147.92630875931158" data-palette-color="#ffffff"><path d="M32.37-35.55L32.37 0 23.85 0 11.25-22.12 11.25 0 2.69 0 2.69-35.55 11.25-35.55 23.83-13.43 23.83-35.55 32.37-35.55ZM64.99-35.55L64.99-28.93 54.32-28.93 54.32 0 45.75 0 45.75-28.93 35.28-28.93 35.28-35.55 64.99-35.55ZM76.04-35.55L81.86-23.73 87.67-35.55 97.46-35.55 87.52-17.92 97.72 0 87.84 0 81.86-12.04 75.87 0 66.01 0 76.19-17.92 66.28-35.55 76.04-35.55Z" opacity="1" transform="matrix(1,0,0,1,0,0)" fill="#ffffff" class="undefined-text-0" data-fill-palette-color="primary" id="text-0"></path></svg></g></svg></g></svg></g></svg></g><g><svg viewBox="0 0 488.86271999999997 315.30472231017393" height="315.30472231017393" width="488.86271999999997"><g><svg xmlns="http://www.w3.org/2000/svg" xmlns:xlink="http://www.w3.org/1999/xlink" version="1.1" x="0" y="0" viewBox="5.519 21.310999999999996 88.963 57.379000000000005" enable-background="new 0 0 100 100" xml:space="preserve" height="315.30472231017393" width="488.86271999999997" class="icon-icon-0" data-fill-palette-color="accent" id="icon-0"><path d="M86.721 33.919l7.761-12.608L52.605 52.125l0.297 1.152-0.088 1.585-1.549 2.306-1.236-1.124h-0.06l-1.226 1.137-1.559-2.318-0.088-1.585 0.297-1.152L5.519 21.311l7.76 12.608 27.855 20.629 0.482 1.383L14.947 39.079l7.181 10.829 20.861 9.962 0.4 1.149-20.555-8.233 4.622 7.089L44.29 63.6l0.325 0.935-16.057-2.191 5.412 5.614 11.366-1.351 0.322 0.923-10.102 1.89 6.998 2.436 3.711-2.585 0.29 0.83-4.986 5.899 5.554-0.429 0.631-2.031 2.186 5.15L50 78.545l0.061 0.145 2.186-5.15 0.631 2.031 5.554 0.429L53.445 70.1l0.29-0.83 3.711 2.585 6.998-2.436-10.104-1.89 0.323-0.923 11.365 1.351 5.413-5.614-16.058 2.191L55.71 63.6l16.835-3.726 4.621-7.089-20.555 8.233 0.4-1.149 20.86-9.962 7.182-10.829-26.67 16.852 0.483-1.383L86.721 33.919zM50 62.41l-1.012-4.651 0.983-1.663h0.057l0.983 1.663L50 62.41z" fill="#eb0000" data-fill-palette-color="accent"></path></svg></g></svg></g></svg></g><defs></defs></svg><rect width="395.52" height="135.65615538742435" fill="none" stroke="none" visibility="hidden"></rect></g></svg></g></svg>